# xmcd
#
# Track frame offsets:
#	150
#	16525
#	39952
#	57322
#	74412
#	96407
#	115945
#	136235
#	154472
#	175522
#
# Disc length: 2591 seconds
#
# Revision: 1
# Processed by: cddbd v1.5.1PL0 Copyright (c) Steve Scherf et al.
# Submitted via: CDex 1.50Beta5
#
DISCID=7d0a1d0a
DTITLE=芳本美代子 - SURF WIND
DYEAR=1900
DGENRE=Pop
TTITLE0=ムーンライト・クルーズ
TTITLE1=First Impression
TTITLE2=クレープ・シュゼット
TTITLE3=白いバスケット・シューズ
TTITLE4=透明なエレベーター
TTITLE5=微風のハンモック
TTITLE6=ハイビスカスの夏
TTITLE7=月影のシルエット
TTITLE8=P・I・N・K
TTITLE9=リボンのない贈り物
EXTD=
EXTT0=
EXTT1=
EXTT2=
EXTT3=
EXTT4=
EXTT5=
EXTT6=
EXTT7=
EXTT8=
EXTT9=
PLAYORDER=
